# File created by Blade
# Date/Time:  Wed Jan 21 16:27:40 2015
# Frame Rate: 120.000 fps
#------------------------------------------------------
:FULLY-SPECIFIED
:DEGREES
1562
root 19.335446 3.698018 -6.192558 -232.773545 -32.916499 -192.169095
Spine 65.166999 0.348061 -0.796302
Head 14.384884 -20.871409 -5.923190
LeftShoulder -18.127481 -9.708305 2.551091
LeftArm -47.225226 28.750497 -91.492572
LeftForeArm 33.171092 -0.000000 82.282941
LeftHand -17.541095 -0.000000 -1.704109
LeftHandThumb1 -26.253704 0.000000 33.147579
RightShoulder -2.650596 -24.656070 -8.916272
RightArm 6.978841 -17.052994 89.048932
RightForeArm -21.430487 -0.000000 63.980451
RightHand 6.218410 0.000000 -65.576093
RightHandThumb1 -24.326973 -0.000000 -32.862282
LeftUpLeg -19.860930 1.407120 31.867840
LeftLeg 9.949543 -0.000000 -0.000000
LeftFoot 26.021092 20.905781 5.320765
LeftToeBase 5.930622 -0.000000 -0.000000
RightUpLeg -95.996434 -13.669527 18.549406
RightLeg 117.304733 -0.000000 -0.000000
RightFoot 14.012686 -35.778727 -7.868340
RightToeBase -8.750900 -0.000000 0.000000
1563
root 19.319745 3.689360 -6.172870 -232.891608 -32.969897 -191.918214
Spine 65.027398 0.220983 -0.884071
Head 14.318531 -21.588806 -5.525120
LeftShoulder -18.128138 -9.778184 2.759325
LeftArm -47.176302 27.984095 -91.935613
LeftForeArm 33.632854 -0.000000 81.418524
LeftHand -17.709634 0.000000 -0.687776
LeftHandThumb1 -26.253704 0.000000 33.147579
RightShoulder -2.748509 -24.601476 -8.696038
RightArm 6.890137 -17.202408 88.655310
RightForeArm -21.694378 0.000000 64.390335
RightHand 5.379860 -0.000000 -64.863075
RightHandThumb1 -24.326973 -0.000000 -32.862282
LeftUpLeg -20.274521 1.250612 31.892010
LeftLeg 10.364271 -0.000000 -0.000000
LeftFoot 25.700276 20.974532 5.174820
LeftToeBase 6.945282 -0.000000 -0.000000
RightUpLeg -96.124081 -13.507918 18.150412
RightLeg 117.949550 -0.000000 -0.000000
RightFoot 13.875616 -35.661621 -7.996054
RightToeBase -8.561333 -0.000000 0.000000
1564
root 19.303663 3.683776 -6.156107 -233.071987 -32.998830 -191.636365
Spine 64.924929 0.101494 -0.892405
Head 14.284148 -22.439494 -5.128596
LeftShoulder -18.054960 -9.751618 2.922529
LeftArm -46.918957 26.905545 -91.847079
LeftForeArm 32.145228 -0.000000 80.930058
LeftHand -17.567572 -0.000000 -0.627275
LeftHandThumb1 -26.253704 0.000000 33.147579
RightShoulder -2.868506 -24.430906 -8.459833
RightArm 6.576350 -17.278201 88.304864
RightForeArm -22.111550 -0.000000 64.946037
RightHand 4.432711 -0.000000 -63.861130
RightHandThumb1 -24.326973 -0.000000 -32.862282
LeftUpLeg -20.684193 1.106914 31.953533
LeftLeg 10.852028 -0.000000 -0.000000
LeftFoot 25.395931 20.923035 4.905906
LeftToeBase 5.385294 -0.000000 -0.000000
RightUpLeg -96.196262 -13.376029 17.778807
RightLeg 118.575902 -0.000000 -0.000000
RightFoot 13.802915 -35.422561 -8.253220
RightToeBase -7.963263 -0.000000 0.000000
1565
root 19.295811 3.675805 -6.134754 -233.251914 -33.008452 -191.210513
Spine 64.752222 -0.142646 -0.873993
Head 14.296103 -23.291351 -4.729210
LeftShoulder -18.048379 -9.765531 3.054582
LeftArm -46.711297 25.760438 -91.551460
LeftForeArm 30.010356 -0.000000 80.683568
LeftHand -17.525114 0.000000 -0.873451
LeftHandThumb1 -26.253704 0.000000 33.147579
RightShoulder -2.891388 -24.308399 -8.206149
RightArm 6.304526 -17.255011 87.893394
RightForeArm -22.381250 -0.000000 65.547134
RightHand 3.696887 -0.000000 -62.827443
RightHandThumb1 -24.326973 -0.000000 -32.862282
LeftUpLeg -21.227591 0.908378 32.115265
LeftLeg 11.335957 -0.000000 -0.000000
LeftFoot 25.037345 20.974768 4.514967
LeftToeBase 5.063528 -0.000000 -0.000000
RightUpLeg -96.303401 -13.312722 17.492508
RightLeg 119.132226 -0.000000 -0.000000
RightFoot 13.779653 -35.259260 -8.239040
RightToeBase -8.415621 -0.000000 0.000000
1566
root 19.275562 3.671651 -6.116456 -233.480748 -33.074625 -190.881128
Spine 64.665790 -0.351703 -0.965413
Head 14.292490 -24.226672 -4.317033
LeftShoulder -18.079916 -9.717620 3.249110
LeftArm -46.522888 24.693893 -91.322637
LeftForeArm 28.977540 -0.000000 80.691214
LeftHand -17.176052 -0.000000 -1.449123
LeftHandThumb1 -26.253704 0.000000 33.147579
RightShoulder -2.965795 -24.267151 -7.935707
RightArm 6.083946 -17.240242 87.481757
RightForeArm -22.804998 -0.000000 66.258716
RightHand 2.737736 -0.000000 -61.712661
RightHandThumb1 -24.326973 -0.000000 -32.862282
LeftUpLeg -21.688266 0.648039 32.187067
LeftLeg 11.894778 -0.000000 -0.000000
LeftFoot 24.562018 21.024474 4.206532
LeftToeBase 4.942483 -0.000000 -0.000000
RightUpLeg -96.335287 -13.277585 17.071078
RightLeg 119.737289 -0.000000 -0.000000
RightFoot 13.799633 -35.087602 -8.445983
RightToeBase -7.956678 -0.000000 0.000000
1567
root 19.243785 3.668563 -6.104836 -233.745846 -33.194762 -190.677272
Spine 64.665530 -0.434170 -1.091106
Head 14.283524 -25.318843 -3.819082
LeftShoulder -18.087399 -9.529943 3.514633
LeftArm -46.254427 23.933120 -91.283989
LeftForeArm 29.152246 -0.000000 80.799600
LeftHand -16.943546 0.000000 -1.543056
LeftHandThumb1 -26.253704 0.000000 33.147579
RightShoulder -3.204734 -24.185317 -7.670664
RightArm 5.759574 -17.324542 87.149879
RightForeArm -23.244000 -0.000000 67.085880
RightHand 1.609196 -0.000000 -60.394593
RightHandThumb1 -24.326973 -0.000000 -32.862282
LeftUpLeg -22.018465 0.351751 32.154919
LeftLeg 12.471515 -0.000000 -0.000000
LeftFoot 24.015561 20.989328 4.063839
LeftToeBase 4.654023 -0.000000 -0.000000
RightUpLeg -96.291888 -13.244435 16.520100
RightLeg 120.357259 -0.000000 -0.000000
RightFoot 13.903610 -34.947420 -8.494755
RightToeBase -8.482937 -0.000000 0.000000
1568
root 19.221097 3.663805 -6.088945 -234.018739 -33.303121 -190.365908
Spine 64.632876 -0.622409 -1.210602
Head 14.302804 -26.424381 -3.373527
LeftShoulder -18.178923 -9.296805 3.794269
LeftArm -45.891817 23.418270 -91.391513
LeftForeArm 29.697717 -0.000000 80.855821
LeftHand -16.869917 0.000000 -2.107220
LeftHandThumb1 -26.253704 0.000000 33.147579
RightShoulder -3.294353 -24.112439 -7.406170
RightArm 5.344634 -17.184666 86.831715
RightForeArm -23.928949 -0.000000 68.081141
RightHand 0.361651 -0.000000 -58.761197
RightHandThumb1 -24.326973 -0.000000 -32.862282
LeftUpLeg -22.454963 0.024185 32.190322
LeftLeg 13.052241 -0.000000 -0.000000
LeftFoot 23.445055 21.126078 3.700830
LeftToeBase 4.656272 -0.000000 -0.000000
RightUpLeg -96.261275 -13.253710 16.042565
RightLeg 120.940827 -0.000000 -0.000000
RightFoot 13.947673 -34.834223 -8.640068
RightToeBase -7.807608 -0.000000 0.000000
1569
root 19.197998 3.659614 -6.072985 -234.281951 -33.398259 -190.058027
Spine 64.597188 -0.801988 -1.327837
Head 14.338173 -27.576163 -2.942774
LeftShoulder -18.300555 -9.038530 4.121829
LeftArm -45.474594 23.131057 -91.639474
LeftForeArm 29.867589 -0.000000 80.777022
LeftHand -16.703077 0.000000 -1.972199
LeftHandThumb1 -26.253704 0.000000 33.147579
RightShoulder -3.425658 -24.150823 -7.052932
RightArm 4.965006 -17.011675 86.401853
RightForeArm -24.684762 -0.000000 69.364218
RightHand -1.321366 -0.000000 -56.845694
RightHandThumb1 -24.326973 -0.000000 -32.862282
LeftUpLeg -22.939948 -0.213621 32.215337
LeftLeg 13.719746 -0.000000 -0.000000
LeftFoot 22.829522 21.199812 3.369414
LeftToeBase 5.061316 -0.000000 -0.000000
RightUpLeg -96.168836 -13.271704 15.479385
RightLeg 121.509801 -0.000000 -0.000000
RightFoot 13.913015 -34.446148 -8.824991
RightToeBase -7.102622 -0.000000 0.000000
1570
root 19.174020 3.655059 -6.052759 -234.568427 -33.510927 -189.714591
Spine 64.570312 -1.013575 -1.393333
Head 14.397314 -28.744033 -2.528998
LeftShoulder -18.301822 -8.793241 4.437693
LeftArm -45.035055 22.926704 -91.948473
LeftForeArm 29.688099 -0.000000 80.559662
LeftHand -16.698299 -0.000000 -2.238225
LeftHandThumb1 -26.253704 0.000000 33.147579
RightShoulder -3.624710 -24.169795 -6.686584
RightArm 4.501934 -16.735097 86.015072
RightForeArm -25.818893 -0.000000 70.839481
RightHand -3.496880 -0.000000 -54.530933
RightHandThumb1 -24.326973 -0.000000 -32.862282
LeftUpLeg -23.451122 -0.595985 32.272505
LeftLeg 14.414271 -0.000000 -0.000000
LeftFoot 22.149202 21.284469 2.954315
LeftToeBase 5.085195 -0.000000 -0.000000
RightUpLeg -96.084774 -13.348350 14.966945
RightLeg 122.029703 -0.000000 -0.000000
RightFoot 13.998756 -34.205686 -8.847875
RightToeBase -6.790977 -0.000000 0.000000
1571
root 19.151252 3.650030 -6.031768 -234.869116 -33.599693 -189.345428
Spine 64.550642 -1.257152 -1.432247
Head 14.475552 -29.982100 -2.179707
LeftShoulder -18.325554 -8.489131 4.743846
LeftArm -44.477799 22.886706 -92.323826
LeftForeArm 29.427103 -0.000000 80.209889
LeftHand -16.733957 -0.000000 -2.939734
LeftHandThumb1 -26.253704 0.000000 33.147579
RightShoulder -3.788334 -24.195344 -6.313796
RightArm 3.938335 -16.361543 85.644835
RightForeArm -27.609463 0.000000 72.610675
RightHand -6.610819 0.000000 -51.819988
RightHandThumb1 -24.326973 -0.000000 -32.862282
LeftUpLeg -24.013082 -0.994203 32.367443
LeftLeg 15.207367 -0.000000 -0.000000
LeftFoot 21.419225 21.294072 2.577253
LeftToeBase 4.349627 -0.000000 -0.000000
RightUpLeg -95.980843 -13.438606 14.546935
RightLeg 122.479249 -0.000000 -0.000000
RightFoot 14.408286 -34.188944 -9.442164
RightToeBase -6.333949 -0.000000 0.000000
1572
root 19.124250 3.646248 -6.007742 -235.143907 -33.793495 -189.055038
Spine 64.574852 -1.437491 -1.555440
Head 14.519716 -31.267575 -1.755734
LeftShoulder -18.214501 -8.348220 5.100289
LeftArm -44.088110 22.904670 -92.728933
LeftForeArm 29.011675 0.000000 79.800639
LeftHand -17.045940 -0.000000 -3.923337
LeftHandThumb1 -26.253704 0.000000 33.147579
RightShoulder -4.100515 -24.261303 -5.831586
RightArm 3.411411 -15.944651 85.268145
RightForeArm -30.047114 0.000000 74.545748
RightHand -10.375187 -0.000000 -48.565260
RightHandThumb1 -24.326973 -0.000000 -32.862282
LeftUpLeg -24.600926 -1.412604 32.323389
LeftLeg 16.056348 -0.000000 -0.000000
LeftFoot 20.497419 21.366203 2.004686
LeftToeBase 4.639615 -0.000000 -0.000000
RightUpLeg -95.861120 -13.568250 13.981079
RightLeg 122.934084 -0.000000 -0.000000
RightFoot 14.738958 -34.053431 -9.910341
RightToeBase -5.296191 -0.000000 0.000000
1573
root 19.101679 3.643280 -5.982912 -235.428654 -33.892104 -188.674259
Spine 64.562591 -1.693136 -1.572118
Head 14.618225 -32.516238 -1.415647
LeftShoulder -18.104882 -8.215822 5.340228
LeftArm -43.719521 22.908690 -93.065431
LeftForeArm 28.493079 -0.000000 79.395672
LeftHand -17.234122 0.000000 -4.247405
LeftHandThumb1 -26.253704 0.000000 33.147579
RightShoulder -4.339397 -24.373425 -5.422982
RightArm 2.937587 -15.392337 84.872879
RightForeArm -31.995703 -0.000000 76.314272
RightHand -13.060101 -0.000000 -45.265997
RightHandThumb1 -24.326973 -0.000000 -32.862282
LeftUpLeg -25.268788 -1.819203 32.404832
LeftLeg 16.991740 -0.000000 -0.000000
LeftFoot 19.448743 21.343986 1.554454
LeftToeBase 4.026453 -0.000000 -0.000000
RightUpLeg -95.653132 -13.657848 13.450497
RightLeg 123.337126 -0.000000 -0.000000
RightFoot 14.790487 -33.894460 -9.830847
RightToeBase -5.200352 -0.000000 0.000000
1574
root 19.074185 3.642639 -5.960292 -235.701090 -34.121246 -188.412552
Spine 64.603604 -1.834083 -1.718528
Head 14.730258 -33.876533 -0.964163
LeftShoulder -17.835511 -8.143432 5.630112
LeftArm -43.489718 22.840085 -93.361573
LeftForeArm 28.063509 0.000000 79.049595
LeftHand -17.463794 -0.000000 -4.209503
LeftHandThumb1 -26.253704 0.000000 33.147579
RightShoulder -4.692884 -24.555024 -5.001263
RightArm 2.533024 -14.814412 84.578820
RightForeArm -32.870684 0.000000 77.801358
RightHand -14.086841 -0.000000 -42.257039
RightHandThumb1 -24.326973 -0.000000 -32.862282
LeftUpLeg -25.926033 -2.213490 32.297353
LeftLeg 18.002169 -0.000000 -0.000000
LeftFoot 18.202514 21.424377 0.879223
LeftToeBase 4.632341 -0.000000 -0.000000
RightUpLeg -95.444043 -13.795513 12.767257
RightLeg 123.773195 -0.000000 -0.000000
RightFoot 14.890632 -33.639584 -9.751256
RightToeBase -4.377902 -0.000000 0.000000
